<?xml version="1.0" standalone="no"?>
<!DOCTYPE svg PUBLIC "-//W3C//DTD SVG 20010904//EN"
 "http://www.w3.org/TR/2001/REC-SVG-20010904/DTD/svg10.dtd">
<svg version="1.0" xmlns="http://www.w3.org/2000/svg"
 width="637.000000pt" height="637.000000pt" viewBox="0 0 637.000000 637.000000"
 preserveAspectRatio="xMidYMid meet">
<metadata>
Created by potrace 1.14, written by Peter Selinger 2001-2017
</metadata>
<g transform="translate(0.000000,637.000000) scale(0.100000,-0.100000)"
fill="#000000" stroke="none">
<path d="M2560 5234 c-8 -3 -22 -8 -30 -11 -8 -4 -17 -7 -20 -8 -30 -8 -80
-31 -80 -37 0 -4 -7 -8 -15 -8 -8 0 -15 -4 -15 -10 0 -5 -5 -10 -10 -10 -11 0
-58 -50 -98 -104 -40 -54 -69 -146 -77 -249 -2 -26 -6 -51 -9 -56 -3 -4 -58
-29 -123 -55 -65 -26 -127 -52 -138 -57 -26 -12 -68 -26 -78 -27 -4 -1 -20 -8
-35 -16 -29 -17 -212 -89 -220 -87 -1 1 -19 -8 -39 -19 -21 -11 -41 -20 -45
-20 -5 0 -30 -9 -56 -21 -98 -43 -113 -49 -123 -49 -5 0 -34 25 -65 55 -77 78
-167 116 -271 116 -77 0 -97 -5 -170 -41 -70 -35 -151 -111 -179 -167 -10 -21
-19 -40 -19 -43 0 -3 -7 -22 -14 -43 -14 -42 -18 -168 -5 -188 5 -8 9 -19 10
-25 2 -15 35 -85 49 -103 55 -76 156 -145 230 -159 39 -7 152 -6 190 2 84 18
213 112 231 169 3 9 10 17 15 17 5 0 9 8 9 18 0 10 5 23 12 30 7 7 8 12 4 12
-5 0 -3 6 3 13 6 8 13 41 15 75 5 65 10 82 28 82 5 0 26 7 46 16 21 9 46 20
57 24 11 4 36 15 55 23 53 23 264 108 275 111 12 4 59 23 100 41 16 7 60 25
96 39 37 14 88 35 115 47 79 35 134 48 134 31 0 -14 92 -102 108 -102 6 0 12
-4 12 -8 0 -8 86 -47 105 -47 6 0 17 -5 25 -10 8 -5 52 -9 99 -10 88 -2 164
15 214 48 14 9 29 17 32 17 19 0 124 109 146 151 20 39 22 40 60 35 22 -3 47
-10 56 -14 9 -5 24 -7 34 -5 11 3 19 1 19 -4 0 -6 10 -9 23 -9 12 1 27 -1 32
-5 9 -6 34 -12 150 -35 41 -9 48 -10 65 -17 13 -5 78 -20 135 -31 11 -3 29 -7
40 -9 11 -3 52 -13 90 -21 74 -17 98 -23 130 -31 11 -2 54 -12 95 -22 41 -9
77 -20 78 -25 2 -4 8 -6 12 -3 5 3 57 -6 116 -21 59 -14 114 -28 123 -29 9 -2
16 -4 16 -5 0 -1 11 -3 25 -6 14 -2 75 -16 135 -30 61 -15 124 -28 140 -31 17
-3 45 -11 63 -18 24 -11 32 -11 32 -2 0 7 4 6 10 -3 5 -8 12 -11 16 -8 3 4 19
1 34 -7 15 -8 30 -12 32 -9 3 2 24 -2 46 -10 23 -9 42 -12 42 -8 0 4 5 0 10
-8 8 -12 10 -12 10 -1 0 10 4 11 13 3 6 -6 14 -10 17 -10 3 1 29 -5 57 -12 51
-13 53 -15 67 -64 8 -28 15 -55 15 -60 -1 -5 3 -12 8 -15 4 -3 17 -22 27 -41
44 -80 162 -161 256 -175 88 -14 210 -3 210 18 0 6 3 8 6 4 12 -12 90 36 139
87 51 52 88 116 100 171 11 48 12 157 3 190 -5 17 -11 35 -12 40 -6 23 -31 71
-41 77 -5 4 -6 8 -1 8 9 0 -81 90 -115 115 -15 12 -90 43 -124 52 -38 11 -210
5 -210 -7 0 -1 -8 -3 -18 -5 -32 -6 -107 -56 -140 -92 -18 -20 -37 -41 -42
-47 -6 -6 -16 -24 -23 -40 -12 -27 -15 -28 -65 -23 -29 4 -86 15 -127 27 -41
11 -93 23 -115 26 -22 4 -48 11 -58 16 -10 5 -21 7 -24 5 -3 -3 -22 1 -44 8
-22 8 -42 14 -44 14 -3 0 -31 5 -63 12 -31 7 -60 12 -64 11 -5 -1 -8 2 -8 6 0
4 -10 8 -22 9 -13 1 -34 4 -48 8 -14 4 -35 8 -47 10 -12 2 -37 8 -55 14 -18 6
-44 12 -58 15 -14 2 -45 9 -70 16 -25 7 -53 13 -62 12 -10 0 -18 2 -18 6 0 4
-10 8 -22 9 -39 3 -83 12 -110 22 -14 5 -29 7 -32 4 -3 -4 -6 -1 -6 5 0 6 -6
9 -13 6 -7 -2 -31 2 -54 10 -23 8 -44 12 -46 9 -3 -3 -12 -1 -19 3 -7 5 -24
10 -38 12 -14 2 -43 8 -65 14 -22 7 -43 12 -47 14 -5 1 -9 2 -10 3 -2 2 -15 4
-29 6 -14 2 -45 9 -69 15 -24 6 -53 13 -64 15 -12 1 -28 5 -36 8 -8 3 -48 13
-89 22 -41 9 -83 21 -94 26 -15 9 -18 8 -11 -3 6 -11 5 -11 -8 0 -9 7 -20 12
-24 11 -11 -3 -59 9 -96 23 -18 7 -28 19 -32 41 -3 18 -8 43 -11 57 -10 55
-81 173 -127 214 -49 43 -138 94 -173 99 -11 1 -24 5 -30 9 -12 7 -175 9 -195
2z"/>
<path d="M1113 3448 c-27 -9 -32 -16 -39 -57 -4 -25 -8 -50 -10 -56 -1 -5 -4
-26 -8 -45 -6 -36 -12 -67 -21 -110 -3 -14 -7 -36 -10 -50 -3 -14 -7 -36 -10
-50 -3 -14 -7 -36 -10 -50 -3 -14 -8 -38 -11 -55 -4 -16 -8 -39 -10 -50 -2
-11 -5 -31 -9 -45 -3 -14 -12 -61 -20 -105 -7 -44 -21 -112 -29 -150 -8 -39
-17 -84 -20 -100 -18 -95 -24 -124 -30 -143 -3 -9 -7 -33 -10 -52 -5 -33 -9
-50 -21 -110 -3 -14 -8 -43 -11 -65 -3 -22 -8 -43 -9 -46 -2 -3 -7 -28 -11
-55 -3 -27 -8 -51 -9 -54 -10 -17 -15 -93 -6 -104 6 -7 28 -13 49 -14 49 -3
75 18 91 76 6 23 17 42 23 42 5 0 24 -15 42 -34 19 -21 58 -45 101 -62 60 -25
84 -29 170 -29 88 0 106 3 156 27 57 28 159 111 159 131 0 6 -12 -3 -27 -20
-66 -72 -158 -112 -273 -118 -74 -4 -74 -4 -20 5 85 15 141 31 191 56 46 23
122 90 132 116 2 7 8 9 13 5 5 -4 2 -12 -6 -17 -8 -5 -11 -13 -6 -17 5 -4 11
-2 13 5 3 7 10 18 17 25 18 18 78 127 71 127 -4 0 0 11 9 25 9 14 14 25 10 25
-4 0 -2 6 4 13 11 14 38 118 50 197 23 151 -7 357 -61 422 -28 34 -119 80
-132 67 -5 -5 -14 -9 -20 -9 -5 0 -3 5 5 10 11 7 5 10 -25 11 -113 3 -176 -11
-250 -57 -55 -34 -151 -122 -142 -130 3 -4 25 14 49 39 49 51 111 88 183 110
58 18 153 29 159 18 3 -4 -7 -8 -22 -8 -53 -1 -148 -24 -198 -48 -27 -13 -80
-53 -116 -88 -64 -62 -67 -63 -78 -42 -9 17 -6 41 14 121 21 83 44 186 62 279
10 52 14 68 18 83 3 9 7 33 10 52 3 19 8 46 11 60 16 76 16 88 -2 94 -33 13
-88 15 -120 4z m7 -53 c-5 -14 -12 -36 -14 -48 -3 -12 -14 -66 -25 -119 -11
-54 -23 -108 -25 -120 -3 -13 -7 -32 -10 -43 -14 -63 -25 -114 -30 -145 -3
-19 -8 -46 -11 -60 -3 -14 -7 -36 -10 -50 -3 -14 -7 -35 -9 -46 -2 -12 -7 -37
-10 -55 -6 -35 -12 -65 -21 -109 -3 -14 -7 -36 -10 -50 -2 -14 -9 -45 -15 -70
-5 -25 -12 -56 -14 -70 -3 -14 -10 -50 -16 -80 -6 -30 -13 -68 -16 -85 -3 -16
-7 -37 -9 -45 -2 -8 -4 -21 -4 -27 -1 -7 -6 -13 -12 -13 -6 0 -8 8 -4 19 8 26
14 53 30 141 8 41 16 89 19 105 3 17 8 41 11 55 3 14 8 41 11 60 3 19 7 43 10
52 3 9 7 27 9 40 3 13 7 34 10 48 2 14 7 41 10 60 3 19 8 46 10 60 3 14 7 36
10 50 3 14 10 50 16 80 5 30 12 66 15 80 3 14 7 32 9 40 2 8 7 29 10 45 2 17
7 41 10 55 3 14 8 41 12 60 4 19 8 37 8 40 1 3 5 25 10 50 5 25 9 47 10 50 13
57 19 70 31 70 10 0 11 -6 4 -25z m97 -17 c-3 -7 -5 -2 -5 12 0 14 2 19 5 13
2 -7 2 -19 0 -25z m-20 -90 c-3 -7 -5 -2 -5 12 0 14 2 19 5 13 2 -7 2 -19 0
-25z m-11 -78 c0 -12 -4 -16 -9 -11 -5 5 -6 14 -3 20 10 15 12 14 12 -9z m-21
-112 c-12 -76 -15 -93 -19 -113 -3 -11 -5 -26 -5 -33 -1 -7 -6 -10 -11 -7 -6
4 -8 9 -6 13 2 4 7 31 11 61 4 30 11 65 16 78 5 13 6 23 3 23 -3 0 -2 5 1 10
12 20 16 9 10 -32z m544 -252 c17 -29 31 -59 31 -66 -1 -8 -10 1 -20 21 -11
20 -37 55 -60 79 -47 49 -50 57 -11 34 16 -9 43 -40 60 -68z m-596 17 c-3 -16
-6 -33 -7 -40 -1 -7 -6 -16 -10 -20 -9 -8 1 65 10 79 10 15 13 7 7 -19z m395
-22 c2 -6 9 -11 15 -11 7 0 18 -10 26 -22 13 -22 13 -22 -5 -8 -34 27 -61 39
-105 45 -66 10 -62 18 6 12 33 -3 61 -10 63 -16z m-184 -27 c-40 -26 -141
-126 -181 -179 -27 -35 -82 -143 -87 -172 -3 -11 -11 -41 -20 -66 -17 -51 -24
-83 -31 -142 -4 -35 -4 -37 6 -15 5 14 15 48 20 75 6 28 20 77 31 110 25 76
27 84 29 93 1 4 10 19 20 34 10 14 19 30 19 35 0 14 40 63 105 127 101 100
208 132 288 87 21 -12 42 -19 47 -16 5 3 11 1 15 -5 3 -5 2 -10 -4 -10 -7 0
-7 -9 0 -27 12 -31 16 -240 6 -319 -4 -28 -11 -64 -17 -80 -6 -16 -11 -30 -11
-31 2 -12 -45 -116 -61 -138 -42 -54 -125 -136 -151 -148 -66 -32 -227 -1
-259 49 -4 6 -20 19 -35 29 -23 14 -21 10 11 -23 82 -86 200 -111 292 -64 47
24 144 110 144 128 0 7 3 14 8 16 13 6 50 82 66 139 24 82 26 96 32 184 3 44
7 103 9 130 1 28 3 58 4 68 1 10 5 15 11 12 10 -6 7 -187 -4 -236 -3 -13 -8
-42 -12 -64 -8 -56 -8 -57 -46 -149 -88 -216 -263 -316 -421 -242 -64 31 -150
117 -141 141 4 9 -1 21 -11 29 -24 17 -15 87 31 251 21 75 80 195 104 215 3 3
14 16 23 29 46 68 164 171 195 171 8 0 -3 -12 -24 -26z m433 -231 c-3 -10 -5
-4 -5 12 0 17 2 24 5 18 2 -7 2 -21 0 -30z m0 -45 c-3 -8 -6 -5 -6 6 -1 11 2
17 5 13 3 -3 4 -12 1 -19z m-22 -168 c-7 -48 -34 -115 -35 -86 0 16 7 48 26
114 8 28 15 9 9 -28z m-60 -180 c-8 -23 -21 -48 -30 -56 -8 -9 -15 -22 -15
-29 0 -8 -5 -17 -11 -21 -7 -4 -9 0 -5 13 8 25 66 133 71 133 2 0 -2 -18 -10
-40z m-824 -100 c-10 -24 -10 -24 -7 5 8 58 9 60 13 40 2 -12 -1 -32 -6 -45z
m189 -111 c3 -3 22 -18 43 -33 43 -33 43 -47 0 -19 -55 35 -123 100 -123 117
0 8 49 -32 80 -65z m-207 11 c-3 -12 -8 -19 -11 -16 -5 6 5 36 12 36 2 0 2 -9
-1 -20z m85 -40 c-11 -33 -28 -49 -28 -28 0 13 27 58 35 58 2 0 -1 -14 -7 -30z"/>
<path d="M5075 3346 c-149 -34 -301 -134 -412 -271 -18 -22 -33 -46 -33 -52 0
-7 -4 -13 -9 -13 -5 0 -12 -11 -15 -25 -4 -14 -11 -25 -16 -25 -6 0 -10 -9
-10 -19 0 -11 -5 -21 -11 -23 -5 -2 -11 -10 -13 -18 -2 -8 -13 -37 -24 -63
-21 -45 -46 -125 -58 -178 -5 -24 -6 -30 -22 -127 -13 -76 -6 -249 13 -323 36
-138 124 -245 249 -303 58 -27 89 -31 231 -29 148 1 255 24 339 71 56 32 81
71 91 145 7 44 6 47 -14 47 -12 0 -63 -18 -114 -39 -118 -50 -166 -63 -250
-67 -169 -7 -290 80 -332 241 -32 122 -6 373 51 494 9 18 17 39 18 45 3 14 29
70 36 76 3 3 14 22 25 43 48 93 183 209 280 241 88 30 214 24 284 -14 12 -6
21 -8 21 -4 0 3 6 2 13 -3 6 -6 43 -27 81 -47 84 -46 96 -40 103 56 5 58 3 67
-19 91 -21 23 -100 66 -133 73 -5 1 -37 9 -70 16 -80 19 -206 20 -280 4z"/>
<path d="M2314 3339 c-17 -5 -38 -17 -46 -26 -13 -15 -44 -135 -65 -253 -2
-14 -8 -41 -13 -60 -5 -19 -11 -51 -14 -70 -3 -19 -8 -46 -11 -60 -3 -14 -7
-35 -9 -48 -3 -13 -7 -31 -10 -40 -3 -9 -7 -33 -10 -52 -3 -19 -8 -46 -11 -60
-11 -54 -18 -86 -20 -100 -1 -8 -5 -28 -8 -45 -4 -16 -9 -46 -12 -65 -4 -19
-10 -53 -15 -75 -5 -22 -12 -56 -15 -75 -3 -19 -8 -42 -10 -50 -2 -8 -6 -31
-9 -50 -3 -19 -8 -45 -10 -56 -2 -12 -7 -37 -10 -55 -3 -19 -8 -44 -10 -55 -2
-12 -7 -37 -10 -55 -20 -126 -25 -118 73 -116 73 2 85 16 106 127 2 8 8 33 13
55 6 22 13 51 16 65 2 14 7 32 10 40 3 8 7 31 10 50 6 35 11 62 21 110 3 14
10 48 16 75 6 28 12 55 13 60 1 6 6 24 10 42 9 38 27 45 99 42 110 -6 193 -46
232 -113 38 -65 59 -151 110 -448 19 -109 17 -106 121 -104 36 1 59 7 65 16
15 22 4 146 -26 300 -35 183 -70 291 -112 346 -19 25 -33 47 -31 49 1 1 32 20
68 41 122 71 203 173 235 295 20 76 14 204 -13 256 -35 68 -129 134 -208 147
-116 19 -460 30 -510 15z m352 -154 c32 -4 65 -12 73 -18 8 -7 17 -12 20 -11
3 0 18 -7 33 -15 41 -23 59 -70 57 -145 -5 -147 -84 -247 -224 -285 -51 -13
-96 -19 -218 -27 l-97 -7 9 24 c4 13 11 42 15 64 3 22 8 51 11 65 5 25 21 109
30 165 3 17 8 37 10 45 2 8 7 29 10 45 11 64 15 77 25 90 18 21 124 26 246 10z"/>
<path d="M3543 3338 c-29 -10 -35 -19 -49 -73 -1 -5 -4 -21 -7 -35 -3 -14 -10
-43 -15 -65 -6 -22 -13 -56 -16 -75 -9 -55 -16 -94 -22 -112 -5 -16 -9 -35
-19 -88 -3 -14 -7 -36 -10 -50 -3 -14 -8 -38 -11 -55 -2 -16 -9 -46 -14 -65
-4 -19 -11 -54 -14 -78 -3 -24 -10 -60 -15 -80 -5 -20 -12 -53 -15 -72 -3 -19
-8 -46 -11 -60 -3 -14 -9 -50 -15 -80 -6 -30 -12 -66 -15 -80 -3 -14 -8 -38
-11 -55 -3 -16 -9 -48 -14 -70 -4 -22 -11 -60 -14 -85 -3 -25 -8 -56 -11 -70
-18 -91 -17 -107 7 -114 29 -7 86 -8 115 0 21 6 38 35 48 82 12 53 14 64 19
80 3 9 8 31 11 47 2 17 7 41 10 55 6 28 22 109 30 155 21 124 25 135 48 134
24 -1 202 9 257 15 70 8 174 37 234 66 69 33 176 130 176 159 0 5 4 11 8 13 9
3 54 96 70 143 40 115 36 258 -10 349 -38 78 -124 137 -218 151 -125 19 -462
27 -507 13z m391 -159 c39 -5 77 -15 85 -22 63 -50 84 -95 87 -180 3 -105 -42
-214 -117 -283 -87 -78 -127 -91 -299 -90 l-135 1 1 25 c1 14 5 43 9 65 4 22
8 49 10 60 2 11 6 34 9 50 4 17 9 46 12 65 3 19 9 53 14 75 5 22 11 54 14 70
7 37 12 64 27 132 l10 53 102 -5 c56 -3 133 -10 171 -16z"/>
<path d="M1742 1727 c-10 -18 -30 -67 -37 -87 -1 -3 -4 -12 -8 -20 -10 -26
-28 -93 -33 -127 -8 -49 12 -40 31 15 10 26 22 61 28 77 12 32 17 52 19 72 1
7 9 20 19 29 21 19 44 8 122 -60 34 -29 126 -96 132 -96 26 0 -36 69 -135 150
-23 19 -49 41 -56 48 -8 8 -22 11 -31 8 -8 -4 -21 -2 -28 4 -8 7 -15 3 -23
-13z m88 -33 c0 -3 -7 -1 -15 6 -8 7 -15 17 -15 22 0 5 7 3 15 -6 8 -8 15 -18
15 -22z m103 -79 c10 -14 14 -25 8 -25 -5 0 -19 13 -31 30 -12 16 -15 27 -8
25 7 -3 21 -17 31 -30z"/>
<path d="M2263 1352 c-7 -5 -14 -21 -15 -38 -3 -41 -24 -71 -56 -78 -15 -3
-34 -10 -42 -16 -13 -9 -12 -12 4 -25 11 -8 28 -15 39 -15 17 0 18 -6 14 -47
-3 -27 -7 -55 -10 -63 -4 -15 -16 -74 -23 -115 -10 -53 -16 -167 -10 -189 8
-31 59 -49 118 -41 47 7 78 29 63 44 -6 5 -27 11 -49 14 -21 3 -43 10 -49 16
-15 15 -12 109 6 191 2 8 7 33 11 55 12 62 30 109 46 122 8 6 33 15 55 19 l40
7 -30 7 -30 8 34 1 c21 1 38 -5 46 -16 11 -15 12 -14 11 7 -1 26 -32 38 -93
34 -36 -2 -44 13 -32 58 14 53 -11 84 -48 60z m26 -78 c-17 -32 -56 -61 -95
-69 -25 -6 -22 -3 16 20 52 31 60 41 60 76 0 35 13 45 24 19 6 -14 5 -28 -5
-46z m-32 -161 c-4 -27 -9 -59 -12 -73 -3 -14 -8 -40 -11 -59 -3 -18 -7 -42
-9 -53 -11 -56 -7 -118 8 -142 10 -14 22 -27 27 -27 6 -1 14 -2 19 -3 5 0 12
-4 15 -7 7 -7 -91 -2 -103 6 -9 5 -8 86 2 190 2 23 10 51 16 64 7 12 10 28 8
36 -3 7 1 24 8 38 7 14 12 38 11 52 -2 17 2 25 12 25 11 0 13 -10 9 -47z"/>
<path d="M2200 775 c0 -9 5 -15 11 -13 6 2 11 8 11 13 0 5 -5 11 -11 13 -6 2
-11 -4 -11 -13z"/>
<path d="M2622 1348 c-6 -6 -12 -24 -12 -38 0 -38 -26 -68 -65 -76 -45 -8 -47
-35 -2 -55 35 -15 37 -24 24 -84 -5 -22 -11 -49 -13 -60 -2 -11 -6 -31 -9 -45
-6 -27 -18 -136 -18 -160 1 -67 4 -80 25 -91 54 -29 158 -15 158 21 0 14 -7
20 -22 21 -51 2 -70 7 -79 20 -11 16 -4 147 11 198 5 19 12 53 15 75 10 68 34
99 85 110 44 9 45 10 15 17 l-30 7 28 1 c16 0 37 -4 48 -9 16 -9 19 -7 19 10
0 21 -11 24 -93 23 l-37 -1 2 62 c3 55 1 61 -17 64 -11 1 -26 -3 -33 -10z m38
-42 c0 -36 -36 -81 -78 -97 -44 -17 -47 -9 -5 16 38 23 61 56 54 79 -3 14 7
36 19 36 5 0 10 -15 10 -34z m-36 -177 c-2 -25 -9 -67 -24 -134 -35 -159 -15
-248 53 -236 5 1 6 -3 3 -7 -5 -8 -94 -7 -102 1 -9 9 -7 148 3 158 6 6 9 26 6
44 -2 18 0 36 6 40 6 3 11 24 11 45 0 21 5 42 10 45 6 3 10 22 10 41 0 24 4
34 13 31 6 -2 11 -15 11 -28z"/>
<path d="M2562 779 c2 -7 10 -15 17 -17 8 -3 12 1 9 9 -2 7 -10 15 -17 17 -8
3 -12 -1 -9 -9z"/>
<path d="M1812 1224 c-76 -17 -119 -47 -159 -114 -70 -118 -74 -336 -5 -366
51 -22 157 -29 226 -14 45 9 60 17 68 36 15 32 5 39 -32 24 -38 -16 -136 -16
-183 -1 -39 13 -47 26 -53 91 -7 61 9 80 71 86 43 4 148 20 180 27 6 2 27 13
47 25 65 40 75 122 22 179 -31 33 -106 45 -182 27z m126 -13 c7 -1 10 -6 7
-11 -4 -6 -28 -9 -55 -7 -26 2 -64 -2 -84 -8 -45 -16 -108 -63 -101 -76 4 -5
0 -9 -8 -9 -11 0 -13 -7 -9 -22 3 -14 2 -19 -6 -14 -8 5 -12 -1 -12 -14 0 -12
-4 -18 -10 -15 -26 16 -9 58 44 109 67 66 108 78 234 67z m48 -29 c14 -9 34
-47 34 -63 0 -7 -6 -4 -14 7 -14 17 -15 16 -13 -25 1 -37 -3 -47 -27 -66 -31
-24 -76 -38 -76 -24 0 5 18 16 40 25 39 16 40 17 40 65 0 59 -15 65 -24 9 -9
-58 -48 -80 -152 -85 -75 -4 -104 3 -95 24 15 36 46 77 73 100 24 20 42 24
104 26 41 1 77 5 81 8 8 9 15 9 29 -1z m-344 -194 c4 -10 10 -10 32 0 15 6 50
11 79 11 l52 -2 -59 -7 c-72 -9 -114 -45 -116 -100 -3 -51 -2 -54 15 -40 13
11 15 8 15 -13 0 -14 5 -29 10 -32 6 -3 10 -11 10 -18 0 -6 -6 -2 -14 9 -8 10
-17 16 -21 13 -10 -11 24 -39 40 -32 9 3 21 1 28 -5 15 -13 9 -12 113 -12 50
0 83 -4 79 -9 -8 -15 -197 -10 -234 5 -46 20 -65 70 -57 159 3 38 6 73 6 78 0
12 18 8 22 -5z"/>
<path d="M3082 1228 c-58 -9 -119 -36 -142 -65 -55 -66 -91 -172 -92 -272 -1
-94 18 -135 73 -153 97 -32 251 -16 271 28 15 32 5 39 -32 24 -39 -16 -135
-17 -182 -1 -40 13 -53 38 -57 107 -1 27 4 45 14 54 8 7 54 16 102 22 159 16
225 51 239 124 12 67 -35 127 -106 135 -19 3 -59 1 -88 -3z m108 -24 c7 -7
-11 -11 -57 -11 -71 0 -106 -12 -155 -56 -15 -13 -25 -27 -21 -31 3 -3 -1 -6
-11 -6 -13 0 -16 -5 -11 -22 6 -16 4 -20 -8 -15 -11 4 -13 0 -9 -16 5 -19 3
-20 -10 -9 -24 19 -11 49 48 108 40 40 64 55 96 61 55 12 125 10 138 -3z m61
-36 c10 -13 18 -32 19 -42 0 -20 0 -20 -15 0 -14 18 -15 16 -11 -24 4 -38 1
-45 -27 -66 -33 -24 -77 -40 -77 -27 0 5 18 16 40 26 40 18 44 25 40 80 -2 41
-17 53 -18 16 -2 -70 -50 -103 -156 -107 -38 -1 -78 1 -88 5 -17 6 -16 10 13
56 33 52 64 84 83 86 6 1 41 2 78 3 37 1 70 5 74 9 12 12 25 8 45 -15z m-326
-180 c14 7 49 11 78 11 l52 -1 -60 -9 c-41 -6 -65 -15 -77 -29 -9 -11 -21 -20
-27 -20 -10 0 -13 -17 -13 -70 0 -32 1 -33 17 -20 13 10 15 9 15 -9 0 -12 4
-31 10 -41 8 -15 20 -21 73 -35 4 -2 46 -4 95 -5 60 -1 79 -4 62 -10 -37 -12
-152 -12 -209 1 -46 10 -51 14 -66 53 -24 63 -10 227 16 185 6 -10 13 -10 34
-1z"/>
<path d="M2890 801 c0 -5 12 -16 26 -26 l27 -17 -19 26 c-19 26 -34 33 -34 17z"/>
<path d="M3478 1226 c-15 -11 -21 -28 -33 -91 -2 -11 -12 -63 -23 -115 -21
-97 -26 -126 -36 -215 l-6 -50 14 50 c8 28 18 68 21 89 4 22 13 54 20 70 13
30 13 30 15 6 2 -28 1 -67 -4 -90 -1 -8 -6 -36 -10 -62 -5 -26 -17 -55 -27
-64 -10 -9 -19 -20 -19 -24 0 -9 50 -8 51 0 0 3 2 14 4 25 2 11 6 43 11 70 4
28 9 55 10 60 2 6 6 21 9 35 9 36 11 42 24 75 16 43 34 78 46 91 6 6 16 21 24
32 15 21 65 46 113 56 25 6 47 40 34 53 -9 10 -84 5 -107 -7 -11 -7 -35 -26
-53 -43 -24 -24 -25 -27 -6 -14 72 49 150 70 150 41 0 -9 -11 -14 -34 -14 -19
0 -41 -6 -48 -12 -8 -7 -40 -38 -71 -68 -53 -51 -56 -52 -49 -25 12 42 15 142
5 148 -4 3 -16 0 -25 -7z m8 -61 c-4 -19 -11 -35 -16 -35 -5 0 -5 13 0 30 5
17 6 30 4 30 -3 0 -2 5 1 11 12 19 18 1 11 -36z m-7 -160 c0 -20 0 -20 -14 -1
-8 11 -15 36 -14 55 l1 36 13 -35 c7 -19 14 -44 14 -55z"/>
</g>
</svg>
