<?xml version="1.0" encoding="UTF-8"?>
<svg width="728px" height="259px" viewBox="0 0 728 259" version="1.1" xmlns="http://www.w3.org/2000/svg" xmlns:xlink="http://www.w3.org/1999/xlink">
    <title>brpc_logo.svg</title>
    <defs>
        <linearGradient x1="50%" y1="0%" x2="50%" y2="100%" id="linearGradient-1">
            <stop stop-color="#B5B5B5" offset="0%"></stop>
            <stop stop-color="#7E7E7E" offset="100%"></stop>
        </linearGradient>
        <linearGradient x1="50%" y1="0%" x2="50%" y2="100%" id="linearGradient-2">
            <stop stop-color="#B5B5B5" offset="0%"></stop>
            <stop stop-color="#7E7E7E" offset="100%"></stop>
        </linearGradient>
        <linearGradient x1="50%" y1="0%" x2="50%" y2="100%" id="linearGradient-3">
            <stop stop-color="#B5B5B5" offset="0%"></stop>
            <stop stop-color="#7E7E7E" offset="100%"></stop>
        </linearGradient>
        <linearGradient x1="50%" y1="0%" x2="50%" y2="100%" id="linearGradient-4">
            <stop stop-color="#B5B5B5" offset="0%"></stop>
            <stop stop-color="#7E7E7E" offset="100%"></stop>
        </linearGradient>
    </defs>
    <g id="页面-1" stroke="none" stroke-width="1" fill="none" fill-rule="evenodd">
        <circle id="椭圆形" fill="#58B8FF" cx="448.5" cy="62.5" r="23.5"></circle>
        <circle id="椭圆形" fill="#58B8FF" cx="704.5" cy="60.5" r="23.5"></circle>
        <circle id="椭圆形" fill="#58B8FF" cx="544" cy="26" r="26"></circle>
        <rect id="矩形" fill="#58B8FF" transform="translate(503.021813, 41.967662) rotate(-22.000000) translate(-503.021813, -41.967662) " x="455.021813" y="35.9676616" width="96" height="12"></rect>
        <rect id="矩形" fill="#58B8FF" transform="translate(626.451088, 44.299021) rotate(13.000000) translate(-626.451088, -44.299021) " x="563.951088" y="38.2990214" width="125" height="12"></rect>
        <g id="brpc-logo" transform="translate(436.000000, 104.000000)" fill-rule="nonzero">
            <g id="编组" transform="translate(138.000000, 77.419111) scale(-1, 1) rotate(-180.000000) translate(-138.000000, -77.419111) translate(0.000000, 0.000000)">
                <path d="M18.8,154.3 C17.8,154.1 17,153.8 17,153.6 C17,153.5 13.2,134.3 8.5,111 C3.8,87.7 -2.05355861e-14,68 -2.05355861e-14,67.4 C-2.05355861e-14,65.9 2.6,65.3 5.7,65.8 C7.3,66.1 8.1,67.2 8.6,69.6 C9.3,73.5 10,73.8 11.7,71.1 C15,65.9 28.8,63.2 36.4,66.4 C48.9,71.6 57.7,89.6 56.8,108.1 C56.3,118.1 54.3,122.6 49,125.2 C44.5,127.5 36.6,127.5 31.4,125.1 C27,123.1 20.8814242,116.827994 20,115.8 C19.8268414,115.598047 19.5,115 19,115.2 C18.3,115.4 18.3,116.5 19,118.7 C19.6,120.4 21.6,129 23.4,137.8 L26.7,153.8 L24.6,154.4 C22.3,155 21.4,155 18.8,154.3 Z M43.4146505,117.414211 C45.1724751,116.087919 45.5010583,115.588759 45.8676937,114.772145 C46.2343291,113.955531 46.8138702,112.705545 47.1008328,111.513935 C48.333925,109.104457 47.0101697,95.2413285 45.0724535,89.7736686 C41.197021,79.2090375 34.9434822,73 28.2495534,73 C23.6694969,73 20.7629225,74.5754274 16.7113341,79.1163653 C15.0378519,80.9698094 15.1125911,81.9677722 14.672201,83.5902589 C14.2318109,85.2127457 15.3810952,94.5991493 17.4068894,98.6767262 C18.5085881,100.995054 18.5085881,100.995054 20.3179492,104.427606 C20.9381193,105.604136 23.3268821,108.69306 24.5063492,109.790864 C25.7413339,110.940342 27.1637693,112.625503 28.2495534,113.712397 C29.4001938,114.864213 32.4960619,116.796414 33.5523876,117.414211 C34.9845521,118.251819 36.3273066,118.776226 37.5806512,118.987432 C40.1349135,119.080104 41.2462694,118.670624 43.4146505,117.414211 Z" id="形状" fill="url(#linearGradient-1)"></path>
                <path d="M248.7,148.9 C241,147.8 232.2,143 226.1,136.5 C211.9,121.5 206.1,93.4 214,77.9 C216.6,72.9 223.2,67.5 228.5,66 C235.2,64.1 249.3,65.1 255.7,67.9 C258.6,69.2 261.4,70.8 262.1,71.6 C263.7,73.5 265,79.9 263.9,80.6 C263.4,80.9 260,79.6 256.3,77.8 C243,71.3 230.4,73.3 225.1,82.9 C218.5,94.9 223.7,119.3 235.5,131.5 C245.8,142 257.4,142.9 271.3,134.2 C273.7,132.7 274.2,132.7 275,134 C275.5,134.8 276,137.2 276,139.2 C276,142.2 275.5,143.2 272.8,144.8 C266.2,148.7 257.7,150.2 248.7,148.9 Z" id="路径" fill="#FFFFFF"></path>
                <path d="M87.4,148.1 C86.2,147.6 84.9,146.7 84.6,146.1 C83.6,144.5 68.1,66.6 68.7,65.8 C69.3,64.8 76.2,64.8 77.7,65.8 C78.4,66.3 80.6,74.4 82.5,83.9 C84.4,93.4 86.2,101.5 86.5,102.1 C87.5,103.6 96.3,103.1 99.9,101.2 C105.7,98.3 107.2,95.2 110,79.7 L112.5,65.5 L117.3,65.2 C123.5,64.8 123.7,65.7 121.6,78.4 C119.1,92.8 117.1,99.6 114.3,102.6 C113,104 112,105.3 112.2,105.5 C112.4,105.6 114.3,106.7 116.5,107.8 C124.5,111.9 129.8,119.6 130.7,128.5 C131.7,138 127.9,143.9 119,146.9 C114.5,148.4 90.2,149.3 87.4,148.1 Z M112.3,138.6 C117.8,136.3 119.3,133.8 118.8,127.7 C117.9,117 111.3,112.1 96.6,111.2 L87.7,110.7 L88.3,113.1 C88.6,114.4 89.8,120.5 91,126.5 C92.1,132.6 93.3,138.1 93.5,138.8 C94.1,140.5 108.1,140.4 112.3,138.6 Z" id="形状" fill="#FFFFFF"></path>
                <path d="M159.5,148.4 C158.4,148.1 157.2,147.5 156.7,147.1 C155.7,146.1 139.9,66.9 140.6,65.9 C141.2,64.8 148,64.7 149.7,65.8 C150.3,66.2 152.2,73.3 153.8,81.5 L156.7,96.5 L167.8,97.1 C184.9,98.1 193.3,102.8 199,114.3 C206.2,129.1 202.4,143.6 190.5,146.9 C186.1,148.1 162.6,149.2 159.5,148.4 Z M186.7,137.4 C195,131.2 191.3,114.2 180.5,108.6 C177.6,107.1 174.2,106.4 167.8,106.2 C162.9,106 159,106.2 159,106.7 C159,107.1 160.4,114.9 162.1,123.9 L165.3,140.2 L174.6,139.8 C182.1,139.5 184.5,139 186.7,137.4 Z" id="形状" fill="#FFFFFF"></path>
                <path d="M52.3,50.7 C49,41.2 49.5,37.5 52.9,46.5 C54.1,49.6 54.8876864,52.4098389 55,52.8 C55.1123136,53.1901611 55.4,54.1 55.9,54.9 C56.6,56 58.2,55.2 63.5,50.9 C67.2,47.9 70.4,45.6 70.6,45.8 C71.7,46.5 70.9,47.4 64.1,53.2 C60,56.6 58.2983882,57.6981689 57.4,58.2 C56.5016118,58.7018311 56.5016118,58.7018311 55.8,58.2 C55,57.49737 54,55.4 52.3,50.7 Z" id="形状" fill="#7E7E7E"></path>
                <path d="M84,34.1 C84,30.6 82.8,29 80.4,29 C78.9,29 78,28.4 78,27.5 C78,26.7 78.9,26 80,26 C82.4,26 82.4,25.5 80.5,17 C79.7,13.4 79.1,8.4 79,5.8 C79,1.6 79.3,1 81.4,0.4 C85.1,-0.5 89.5,0.3 89.8,2 C90,3.1 89.2,3.5 86.8,3.5 C83.9,3.5 83.5,3.8 83.3,6.5 C83.1,8.2 83.8,13.1 84.8,17.5 C86.5,25.4 86.5,25.5 90,26.1 L93.5,26.7 C94.2848943,26.7875501 94.751561,26.9875501 94.9,27.3 C95,28.6 94.2,29 91.1,29 L87.1,29 L87.7,32.5 C88.2,35.6 88,36 86.1,36 C84.7,36 84,35.4 84,34.1 Z" id="形状" fill="url(#linearGradient-2)"></path>
                <path d="M105,34.1 C105,30.6 103.8,29 101.4,29 C99.9,29 99,28.4 99,27.5 C99,26.7 99.9,26 101,26 C103.4,26 103.4,25.5 101.5,17 C100.7,13.4 100.1,8.4 100,5.8 C100,1.6 100.3,1 102.4,0.4 C106.1,-0.5 110.5,0.3 110.8,2 C111,3.1 110.2,3.5 107.8,3.5 C104.9,3.5 104.5,3.8 104.3,6.5 C104.1,8.2 104.8,13.1 105.8,17.5 C107.5,25.4 107.5,25.5 111,26.1 L114.5,26.7 C115.433333,26.8462934 115.9,27.0462934 115.9,27.3 C116,28.6 115.2,29 112.1,29 L108.1,29 L108.7,32.5 C109.2,35.6 109,36 107.1,36 C105.7,36 105,35.4 105,34.1 Z" id="形状" fill="url(#linearGradient-2)"></path>
                <path d="M54.3,26.9 C49.8,24 46.6,16.9 46.5,9.7 C46.5,1.9 48.6,0 57.2,0 C63.6,0 67,1.2 67,3.6 C67,4.7 66.6,4.8 65.1,4 C62.4,2.6 54.7,2.7 52.7,4.3 C51.8,4.9 51,6.6 50.9,8 C50.4,13.5 50.6,13.7 57.8,14.2 C66,14.9 69.5,16.4 71,20 C72.3,23.2 71.2,26.3 68,28 C64.8,29.7 57.8,29.1 54.3,26.9 Z M67,22.7 C67,19 63.6,17 57.3,17 C54.4,17 52,17.3 52,17.8 C52,18.9 55.1,23.2 57,24.8 C57.9,25.5 60.2,25.9 62.8,25.7 C65.1,25.4 67,26.1 67,22.7 Z" id="形状" fill="url(#linearGradient-3)"></path>
                <path d="M126.3,26.9 C121.8,24 118.6,16.9 118.5,9.7 C118.5,1.9 120.6,0 129.2,0 C135.6,0 139,1.2 139,3.6 C139,4.7 138.6,4.8 137.1,4 C134.4,2.6 126.7,2.7 124.7,4.3 C123.8,4.9 123,6.6 122.9,8 C122.4,13.5 122.6,13.7 129.8,14.2 C138,14.9 141.5,16.4 143,20 C144.3,23.2 143.2,26.3 140,28 C136.8,29.7 129.8,29.1 126.3,26.9 Z M139,22.7 C139,19 135.6,17 129.3,17 C126.4,17 124,17.3 124,17.8 C124,18.9 127.1,23.2 129,24.8 C129.9,25.5 132.2,25.9 134.8,25.7 C137.1,25.4 139,26.1 139,22.7 Z" id="形状" fill="url(#linearGradient-3)"></path>
                <path d="M153.7,26.8 C151.7,18.4 149.2978,2.90464869 149.2978,2.1 C149.2978,1.77371339 148.894918,0.241544332 150.3,0.1 C151.705082,-0.0415443324 153,0.4 153,2.1 C153,3.2 153.7,7.2 154.6,11 C156.5,19.3 161,25.2 165.5,25.4 C167.5,25.5 168.6,26.1 168.8,27.3 C169.1,28.6 168.4,29 165.8,29 C163.2,29 161.6,28.2 159.4,25.8 L156.5,22.5 C155.5,19.6333333 155.133333,18.4333333 155.4,18.9 C155.9,19.7 156.5,22.2 156.7,24.6 C156.9,27.9 156.7,29 155.6,29 C154.8,29 154,28 153.7,26.8 Z" id="形状" fill="url(#linearGradient-4)"></path>
            </g>
        </g>
        <text id="Apache" font-family="PingFangSC-Regular, PingFang SC" font-size="116.52766" font-weight="normal" fill="#FFFFFF">
            <tspan x="0" y="192">Apache</tspan>
        </text>
    </g>
</svg>